PathFileType	4	(X/Y/Z)	c:/Users/goper/Files/vsCode/490R/osim_files/C07/C07_Fast_02.trc
DataRate	CameraRate	NumFrames	NumMarkers	Units                	OrigDataRate	OrigDataStartFrame	OrigNumFrames
250.00	250.00	8	36	mm	250.0	653	1739
                Frame#	Time	LPSIS			LASIS			LTH1			LTH2			LTH3			LTH4			LLFE			LMFE			LSH1			LSH2			LSH3			LSH4			LLMAL			LMMAL			LCAL			LMTP5			LTOE			LMTP1			RPSIS			RASIS			RTH1			RTH2			RTH3			RTH4			RLFE			RMFE			RSH1			RSH2			RSH3			RSH4			RLMAL			RMMAL			RCAL			RMTP1			RTOE			RMTP5		
		X1	Y1	Z1	X2	Y2	Z2	X3	Y3	Z3	X4	Y4	Z4	X5	Y5	Z5	X6	Y6	Z6	X7	Y7	Z7	X8	Y8	Z8	X9	Y9	Z9	X10	Y10	Z10	X11	Y11	Z11	X12	Y12	Z12	X13	Y13	Z13	X14	Y14	Z14	X15	Y15	Z15	X16	Y16	Z16	X17	Y17	Z17	X18	Y18	Z18	X19	Y19	Z19	X20	Y20	Z20	X21	Y21	Z21	X22	Y22	Z22	X23	Y23	Z23	X24	Y24	Z24	X25	Y25	Z25	X26	Y26	Z26	X27	Y27	Z27	X28	Y28	Z28	X29	Y29	Z29	X30	Y30	Z30	X31	Y31	Z31	X32	Y32	Z32	X33	Y33	Z33	X34	Y34	Z34	X35	Y35	Z35	X36	Y36	Z36

653	2.60800	9.29419	1017.90088	377.97552	-161.40567	994.63019	451.43445	-105.21671	791.28247	498.80807	-120.69758	713.92572	493.96420	-136.07193	641.29089	478.76999	-198.23311	731.23767	473.18079	-125.32229	517.79828	453.98138	-126.06629	506.25778	333.56604	-85.75720	328.98999	461.81262	-66.55450	287.06000	446.34174	-125.35879	332.27283	449.00302	-118.46567	287.54428	440.87201	-47.29298	108.91213	399.94836	-74.79432	131.79395	328.78812	14.25785	49.63891	350.15488	-166.89998	39.15862	428.85059	-225.56256	50.62635	377.21463	-195.63867	41.47837	324.55338	9.96910	1021.35461	277.93253	-147.77148	990.14868	198.94275	-140.59631	835.17926	142.89490	-168.26123	761.75073	137.22852	-193.73203	683.29242	138.04417	-235.57826	786.34418	168.08710	-233.68384	522.28705	162.52408	-242.56064	528.90735	281.65942	-76.38817	439.99146	160.67043	-60.62394	386.34836	152.60777	-119.01797	398.12247	154.22638	-85.99032	367.34399	157.07893	79.85818	286.08585	196.21986	47.22412	262.10306	268.82098	144.16025	290.77026	252.16573	36.81668	109.06107	253.20003	16.91605	102.58292	201.58302	63.41138	136.39552	149.40083
654	2.61200	4.49596	1018.33246	377.98196	-165.90837	994.72949	451.84662	-108.01562	791.60626	498.81543	-123.16416	714.13403	494.03317	-137.99733	641.39679	478.92688	-200.52768	730.98608	474.06082	-126.30046	517.99591	454.09323	-127.45544	506.40421	333.57837	-86.42628	329.05984	461.84821	-67.16273	287.26556	446.53320	-126.06310	332.31348	448.88092	-119.15947	287.62997	440.73672	-47.45932	109.03790	399.99692	-74.96961	131.94542	328.79858	14.22824	49.76284	350.07825	-166.94225	39.15939	428.84979	-225.60458	50.58710	377.23441	-195.83223	41.53568	324.32053	5.15627	1021.90149	277.91040	-152.22542	990.71844	199.32068	-146.64212	836.45160	142.92366	-173.29950	762.72107	137.03639	-197.67497	683.86633	137.54227	-240.97093	787.77844	168.94810	-242.22713	524.21210	162.78983	-251.12018	530.97668	281.68558	-85.54661	439.75784	160.12065	-71.13974	385.49103	152.66402	-129.48077	397.95007	154.41472	-96.72027	366.87549	157.23224	68.10385	283.15054	196.37189	34.83102	259.55582	268.91418	132.35559	286.30597	252.64433	21.05988	106.90812	252.66803	1.24649	101.22143	200.79129	48.78125	134.09917	148.99304
655	2.61600	-0.12419	1018.73987	377.84894	-170.31349	994.79724	452.20905	-110.97092	791.94482	498.84967	-125.60629	714.31805	494.09589	-139.85486	641.48425	479.12262	-202.84793	730.83270	475.08295	-127.27567	518.09930	454.20007	-128.74997	506.54465	333.51886	-87.34975	329.12634	461.85883	-67.88813	287.22952	446.27188	-126.71082	332.34198	448.84686	-119.70124	287.59006	440.51837	-47.59802	109.18864	400.03680	-75.13023	132.08893	328.75073	14.16916	49.93856	349.99658	-166.95963	39.13933	428.84747	-225.65813	50.54742	377.25388	-195.89836	41.51489	324.32764	0.34041	1022.51636	277.86932	-157.08365	991.60419	199.58853	-152.18584	837.76184	142.92653	-178.75287	763.82501	136.91219	-203.03477	685.12537	137.34911	-249.54248	790.78979	168.71236	-250.64172	526.08752	162.98412	-259.28082	532.89313	281.63263	-95.57957	438.55420	160.80835	-81.58871	384.54333	152.75899	-139.80453	397.56329	154.64197	-107.52134	366.28168	157.40022	56.08630	280.02994	196.57480	22.23688	256.87244	269.04227	120.42616	281.62811	253.02788	5.34648	104.81205	252.15190	-14.31668	99.66521	200.30508	33.84148	131.57910	148.72559
656	2.62000	-4.79567	1019.09381	377.72437	-174.81947	994.73499	452.63025	-113.80385	792.19379	498.79611	-128.02924	714.46997	494.15213	-141.97351	641.61444	479.20532	-205.21875	730.80017	476.26031	-128.38458	518.17859	454.24191	-130.19417	506.61093	333.50040	-88.18132	329.17053	461.83450	-68.69337	287.20682	446.10141	-127.60303	332.30481	448.62213	-120.35420	287.55716	440.27368	-47.40078	109.01678	399.91138	-75.28907	132.24657	328.70630	14.07413	50.07418	349.99100	-166.99437	39.13998	428.83191	-225.65207	50.46460	377.22534	-195.95255	41.51921	324.29373	-4.47733	1022.95184	277.80688	-161.93124	992.28632	200.13359	-157.36601	838.90015	143.10928	-184.57135	765.04083	136.84886	-209.39104	686.68396	137.00204	-255.69392	792.61725	169.24332	-258.97363	527.86676	163.11258	-266.99838	534.63794	281.49371	-104.95784	437.73950	161.09508	-91.92265	383.48065	152.84334	-150.11824	397.10187	154.90140	-118.17536	365.59628	157.54150	44.14633	276.69766	196.72472	9.58515	254.06758	269.06299	108.44312	276.84732	253.42509	-10.56354	102.61345	251.68178	-30.19797	98.02775	199.71735	18.97214	128.97231	148.43462
657	2.62400	-9.51752	1019.37457	377.61227	-179.23880	994.82660	452.92914	-116.78815	792.46198	498.72885	-130.46060	714.56433	494.19373	-143.88214	641.71533	479.37402	-207.68915	730.82947	477.46234	-129.46071	518.28033	454.33356	-131.56346	506.66486	333.51770	-89.11735	329.29025	461.81592	-69.39905	287.54605	446.31064	-128.54895	332.26373	448.42850	-121.21841	287.62842	440.08307	-47.87411	109.35441	399.90945	-76.54912	132.92944	328.43597	14.00409	50.26389	349.94080	-167.02007	39.14634	428.79568	-225.71092	50.44997	377.21411	-196.03093	41.50111	324.26608	-9.23213	1023.43182	277.72018	-166.91377	993.00238	200.33722	-162.63770	839.98108	143.36523	-190.70503	766.34674	136.83929	-216.33066	688.37274	136.68036	-261.89291	794.40350	169.72003	-267.15979	529.57288	163.23077	-274.22873	536.19214	281.26193	-114.66003	437.13510	160.39496	-102.24450	382.24207	152.84985	-160.42137	396.62518	155.11461	-128.85255	364.89642	157.61995	31.99935	273.28265	196.86867	-3.12709	251.24734	269.14603	96.32139	271.83786	253.80911	-26.60311	100.29845	251.22049	-46.14257	96.32684	199.15698	3.72007	126.18510	148.22742
658	2.62800	-14.15970	1019.61688	377.46976	-183.61916	994.76569	453.32620	-119.65413	792.72546	498.71121	-132.90103	714.61865	494.22821	-145.78673	641.80310	479.49387	-210.40474	730.53473	477.98279	-130.58018	518.35797	454.32498	-132.91591	506.66174	333.45013	-89.94965	329.39667	461.76089	-69.96918	287.88907	446.49707	-129.27063	332.29657	448.26718	-122.03762	287.87943	439.70505	-48.07465	109.57858	399.88794	-75.05585	132.28938	328.79855	13.97029	50.39812	349.92471	-167.04797	39.17285	428.74994	-225.74605	50.39969	377.17627	-196.02568	41.45815	324.20676	-14.03829	1023.80975	277.66553	-171.73822	993.77979	200.61705	-172.91568	840.78229	141.90643	-197.10390	767.72125	136.87637	-219.81767	686.84595	137.96239	-267.96222	796.18970	170.16048	-275.15280	531.30670	163.39008	-281.15161	537.66766	281.03973	-123.95200	436.06827	160.29312	-112.57375	381.00031	152.91525	-170.39775	396.31229	155.25684	-139.51547	364.13913	157.73459	19.84314	269.64291	197.12917	-15.93712	248.20264	269.15948	84.08932	266.62476	254.04874	-42.79225	97.86897	250.79375	-62.30156	94.70344	198.73802	-11.43036	123.44717	147.87337
659	2.63200	-18.76270	1019.85431	377.28732	-188.16766	994.68750	453.69659	-122.52440	792.91492	498.69238	-135.34264	714.66333	494.26773	-147.82381	641.77820	479.53125	-213.17369	729.91608	477.84235	-131.75414	518.40765	454.41153	-134.38924	506.70169	333.42395	-90.74196	329.53821	461.67978	-70.57778	288.07932	446.48526	-129.98964	332.30722	448.07779	-122.63284	287.88315	439.47650	-48.21226	109.79302	399.86020	-75.24064	132.42360	328.73135	13.94080	50.55913	349.85236	-167.03696	39.15157	428.73935	-225.73979	50.32259	377.17474	-196.11569	41.41562	324.20663	-18.84154	1024.17700	277.61203	-176.77940	994.25177	201.06493	-178.23538	842.07178	142.16603	-203.71803	769.14258	136.95305	-227.61568	688.92639	137.82121	-274.05313	797.88428	170.60974	-283.34155	532.77112	162.87991	-288.49713	539.38940	281.13184	-133.31810	435.03510	160.31163	-122.90071	379.66513	153.07039	-180.65327	395.90677	154.69109	-150.09619	363.18817	157.84744	7.54447	265.87180	197.28526	-28.68446	244.94168	269.33713	71.73141	261.28854	254.30103	-59.16415	95.65685	250.43329	-78.42854	92.87278	198.22339	-27.01752	120.60585	147.58372
660	2.63600	-23.36427	1019.95416	377.21838	-192.46147	994.58307	453.98511	-125.35497	793.08142	498.72928	-137.77744	714.72858	494.32455	-149.67867	641.80438	479.66226	-215.17924	729.98425	478.99933	-132.85703	518.46729	454.46576	-135.80377	506.69507	333.41635	-91.44949	329.69614	461.65842	-71.28978	288.13425	446.27441	-130.72858	332.29407	447.89963	-123.01955	287.70032	439.58560	-48.37416	109.95847	399.80939	-75.44326	132.58958	328.65759	13.53618	50.58948	350.12421	-167.04808	39.10490	428.73273	-225.76709	50.22795	377.15451	-196.17863	41.38993	324.13428	-23.53445	1024.42712	277.53781	-181.66074	994.97656	201.13405	-183.53535	843.20465	142.24431	-210.49747	770.58911	137.06219	-235.81627	691.02753	137.92169	-280.07312	799.46649	171.14188	-290.96118	534.33319	163.44528	-295.91809	540.86237	281.18713	-142.46861	433.70447	160.44040	-133.19986	378.15384	152.99287	-190.54700	395.50070	155.20447	-160.62910	362.24805	157.89902	-4.73599	261.90485	197.56821	-41.60354	241.67970	269.41830	59.32376	255.64894	254.70012	-75.32719	93.23565	250.18129	-94.01410	91.00159	197.68376	-43.03547	117.71331	147.12617
